<svg width="36" height="36" viewBox="0 0 36 36" fill="none" xmlns="http://www.w3.org/2000/svg">
<path d="M22 32H32V4H4V32H18V22H14V18H18V14.692C18 12.018 18.28 11.048 18.8 10.07C19.3122 9.10237 20.1039 8.31138 21.072 7.8C21.836 7.39 22.786 7.144 24.446 7.038C25.104 6.996 25.956 7.048 27.002 7.198V10.998H26C24.166 10.998 23.408 11.084 22.956 11.326C22.6863 11.4647 22.4667 11.6843 22.328 11.954C22.088 12.406 22 12.854 22 14.69V18H27L26 22H22V32ZM2 0H34C34.5304 0 35.0391 0.210714 35.4142 0.585786C35.7893 0.960859 36 1.46957 36 2V34C36 34.5304 35.7893 35.0391 35.4142 35.4142C35.0391 35.7893 34.5304 36 34 36H2C1.46957 36 0.960859 35.7893 0.585786 35.4142C0.210714 35.0391 0 34.5304 0 34V2C0 1.46957 0.210714 0.960859 0.585786 0.585786C0.960859 0.210714 1.46957 0 2 0Z" fill="#3B2E40"/>
</svg>
