<svg width="38" height="38" viewBox="0 0 38 38" fill="none" xmlns="http://www.w3.org/2000/svg">
<path d="M10.6667 16.9167V27.3333M10.6667 10.6667V10.6875M19 27.3333V16.9167M2.33337 6.49999C2.33337 5.39493 2.77236 4.33512 3.55376 3.55372C4.33516 2.77231 5.39497 2.33333 6.50004 2.33333H31.5C32.6051 2.33333 33.6649 2.77231 34.4463 3.55372C35.2277 4.33512 35.6667 5.39493 35.6667 6.49999V31.5C35.6667 32.6051 35.2277 33.6649 34.4463 34.4463C33.6649 35.2277 32.6051 35.6667 31.5 35.6667H6.50004C5.39497 35.6667 4.33516 35.2277 3.55376 34.4463C2.77236 33.6649 2.33337 32.6051 2.33337 31.5V6.49999Z" stroke="#3B2E40" stroke-width="4" stroke-linecap="round" stroke-linejoin="round"/>
<path d="M27.3333 27.3333V21.0833C27.3333 19.9783 26.8943 18.9184 26.1129 18.137C25.3315 17.3556 24.2717 16.9167 23.1667 16.9167C22.0616 16.9167 21.0018 17.3556 20.2204 18.137C19.439 18.9184 19 19.9783 19 21.0833" stroke="#3B2E40" stroke-width="4" stroke-linecap="round" stroke-linejoin="round"/>
</svg>
